HIERARCHY
ROOT RootJoint
{
    OFFSET   0.000000   0.000000   0.000000
    CHANNELS 6 Xposition Yposition Zposition Xrotation Yrotation Zrotation
    JOINT pelvis_lowerback
    {
        OFFSET   0.000000   0.093605   0.000000
        CHANNELS 3 Xrotation Yrotation Zrotation
        JOINT lowerback_torso
        {
            OFFSET   0.000000   0.100000   0.000000
            CHANNELS 3 Xrotation Yrotation Zrotation
            JOINT torso_head
            {
                OFFSET   0.000000   0.282350   0.000000
                CHANNELS 3 Xrotation Yrotation Zrotation
                End Site
                {
                    OFFSET   0.000000   0.192650   0.000000
                }
            }
            JOINT rTorso_Clavicle
            {
                OFFSET  -0.001000   0.157500   0.000000
                CHANNELS 3 Xrotation Yrotation Zrotation
                JOINT rShoulder
                {
                    OFFSET  -0.117647   0.000000   0.000000
                    CHANNELS 3 Xrotation Yrotation Zrotation
                    JOINT rElbow
                    {
                        OFFSET  -0.245000   0.000000   0.000000
                        CHANNELS 3 Xrotation Yrotation Zrotation
                        JOINT rWrist
                        {
                            OFFSET  -0.240000   0.000000   0.000000
                            CHANNELS 3 Xrotation Yrotation Zrotation
                            End Site
                            {
                                OFFSET  -0.116353  -0.002500   0.000000
                            }
                        }
                    }
                }
            }
            JOINT lTorso_Clavicle
            {
                OFFSET   0.001000   0.157500   0.000000
                CHANNELS 3 Xrotation Yrotation Zrotation
                JOINT lShoulder
                {
                    OFFSET   0.117647   0.000000   0.000000
                    CHANNELS 3 Xrotation Yrotation Zrotation
                    JOINT lElbow
                    {
                        OFFSET   0.245000   0.000000   0.000000
                        CHANNELS 3 Xrotation Yrotation Zrotation
                        JOINT lWrist
                        {
                            OFFSET   0.240000   0.000000   0.000000
                            CHANNELS 3 Xrotation Yrotation Zrotation
                            End Site
                            {
                                OFFSET   0.116353  -0.002500   0.000000
                            }
                        }
                    }
                }
            }
        }
    }
    JOINT rHip
    {
        OFFSET  -0.100000  -0.051395   0.000000
        CHANNELS 3 Xrotation Yrotation Zrotation
        JOINT rKnee
        {
            OFFSET   0.000000  -0.410000   0.000000
            CHANNELS 3 Xrotation Yrotation Zrotation
            JOINT rAnkle
            {
                OFFSET   0.000000  -0.390000   0.000000
                CHANNELS 3 Xrotation Yrotation Zrotation
                JOINT rToeJoint
                {
                    OFFSET   0.000000  -0.050000   0.130000
                    CHANNELS 3 Xrotation Yrotation Zrotation
                    End Site
                    {
                        OFFSET  -0.010000   0.002000   0.060000
                    }
                }
            }
        }
    }
    JOINT lHip
    {
        OFFSET   0.100000  -0.051395   0.000000
        CHANNELS 3 Xrotation Yrotation Zrotation
        JOINT lKnee
        {
            OFFSET   0.000000  -0.410000   0.000000
            CHANNELS 3 Xrotation Yrotation Zrotation
            JOINT lAnkle
            {
                OFFSET   0.000000  -0.390000   0.000000
                CHANNELS 3 Xrotation Yrotation Zrotation
                JOINT lToeJoint
                {
                    OFFSET   0.000000  -0.050000   0.130000
                    CHANNELS 3 Xrotation Yrotation Zrotation
                    End Site
                    {
                        OFFSET   0.010000   0.002000   0.060000
                    }
                }
            }
        }
    }
}
MOTION
Frames: 11
Frame Time:   0.008333
 -2.487708   0.894146   3.951274 -13.261312  18.861959   0.594271  12.203552  -3.966781  -2.641307   2.865584  -7.319956   3.025021   4.855892  -3.637604   3.721616  -5.318883  -8.084600  -5.841648 -21.854611 -15.570129  36.169343 179.359159  89.616905 -179.360699  -5.594514   5.344189  -4.304178  -0.255615  -6.180220   1.849144  -9.015411 -23.706124 -45.050948 -179.997955 -78.606163 -179.996490  -3.678917  -7.187407  -1.324024   2.501228 -17.405620  -7.452113  34.170074   0.000086  -0.011768  -7.753376  -9.810118   9.264812 -19.547627  -0.005854  -0.034034  -4.125514   6.779311   5.037330  33.208137   0.000069   0.000360 -16.930725  -4.008468  -1.626766  -0.277111   0.000051  -0.001180
 -2.489099   0.892971   3.949145 -12.946962  18.897172   0.946059  12.191378  -3.869879  -2.583659   2.817117  -7.327799   3.035750   4.784508  -3.696164   3.568000  -5.388522  -7.821633  -5.842323 -22.860279 -15.752236  35.656188   1.005436  89.668578  -1.008150  -5.708762   5.424564  -4.449033  -0.362954  -6.205897   1.943349  -9.403377 -23.840050 -45.421278 179.999624 -78.229728 -179.998697  -3.582435  -7.097613  -1.163058   2.384164 -17.310131  -7.667529  33.521282   0.000372  -0.010794  -8.649047 -10.050595   8.585338 -20.529466  -0.006871  -0.029968  -4.755774   6.991533   4.716100  33.553849   0.000229   0.001042 -17.179597  -3.790981  -1.827348  -0.130734   0.000243  -0.000350
 -2.490487   0.892203   3.946909 -12.712796  19.004657   1.167534  12.264651  -3.801373  -2.402455   2.825346  -7.345109   3.099248   4.719219  -3.755988   3.414816  -5.477770  -7.510572  -5.819567 -23.831601 -15.894764  35.175442   0.355252  88.963317  -0.359274  -5.829003   5.353867  -4.698236  -0.473025  -6.299419   1.985499  -9.795585 -24.013742 -45.808653 179.996801 -77.855867 179.998307  -3.490786  -7.138117  -1.075345   2.219365 -17.284524  -7.770088  33.228433   0.000467  -0.009197  -9.879790 -10.293557   8.053989 -18.690630  -0.004258  -0.020172  -5.301088   7.177261   4.566375  33.826425   0.000347   0.001558 -17.425655  -3.580490  -2.014767  -0.012346   0.000338   0.000248
 -2.491855   0.891626   3.944664 -12.502262  19.140465   1.376694  12.348438  -3.745474  -2.237070   2.854698  -7.368134   3.169759   4.663627  -3.811841   3.273698  -5.560897  -7.198650  -5.789158 -24.737777 -16.011926  34.739040   0.215832  88.304138  -0.220857  -5.948983   5.249209  -4.925595  -0.579239  -6.415908   2.020569 -10.173982 -24.197015 -46.185864 179.994657 -77.497521 179.995885  -3.406257  -7.242029  -1.052092   2.043828 -17.258074  -7.864023  32.970873   0.000489  -0.007891 -10.902490 -10.508224   7.532390 -17.004321  -0.001549  -0.012586  -5.805475   7.321610   4.458662  34.027029   0.000346   0.001781 -17.667906  -3.390510  -2.175638   0.096996   0.000348   0.000655
 -2.493191   0.891151   3.942431 -12.306984  19.283584   1.593154  12.436516  -3.693745  -2.097948   2.889570  -7.391041   3.228480   4.613057  -3.863796   3.140685  -5.637633  -6.897417  -5.757648 -25.582965 -16.110599  34.336936   0.148854  87.690727  -0.154524  -6.065302   5.146978  -5.121249  -0.681290  -6.537118   2.053596 -10.534133 -24.375534 -46.543916 179.993348 -77.159130 179.994291  -3.326524  -7.371142  -1.057198   1.867229 -17.222687  -7.969809  32.722903   0.000475  -0.006845 -11.818654 -10.703888   7.031757 -15.456050   0.000705  -0.006889  -6.290594   7.432509   4.386738  34.176292   0.000264   0.001819 -17.902432  -3.217510  -2.316382   0.196813   0.000292   0.000908
 -2.494480   0.890740   3.940221 -12.127373  19.421574   1.821013  12.528268  -3.641931  -1.982951   2.927011  -7.410066   3.271707   4.566192  -3.912073   3.014460  -5.709468  -6.609775  -5.728929 -26.372876 -16.194084  33.962851   0.108164  87.119969  -0.114177  -6.177027   5.054596  -5.294638  -0.778049  -6.655322   2.084709 -10.874209 -24.543804 -46.881093 179.992700 -76.841864 179.993380  -3.250553  -7.507067  -1.070668   1.693674 -17.179210  -8.093535  32.480104   0.000446  -0.005990 -12.664747 -10.884524   6.554813 -14.035856   0.002428  -0.002801  -6.764110   7.514748   4.355466  34.285320   0.000147   0.001739 -18.127435  -3.058850  -2.440745   0.288052   0.000189   0.001046
 -2.495704   0.890372   3.938037 -11.964766  19.545717   2.061347  12.623430  -3.587831  -1.888928   2.966793  -7.423176   3.299925   4.522705  -3.956887   2.894695  -5.777359  -6.336123  -5.704681 -27.112070 -16.264385  33.613267   0.080721  86.588863  -0.086845  -6.283960   4.973204  -5.452565  -0.868464  -6.767106   2.113556 -11.193444 -24.700018 -47.197660 179.992493 -76.545451 179.992949  -3.177876  -7.641161  -1.084849   1.524257 -17.128532  -8.238384  32.243626   0.000412  -0.005267 -13.457585 -11.052535   6.101887 -12.733600   0.003670  -0.000029  -7.228843   7.568873   4.369841  34.358225   0.000033   0.001576 -18.343019  -2.913415  -2.550003   0.371759   0.000055   0.001099
 -2.497101   0.889962   3.935372 -11.810705  19.502786   2.282348  12.817040  -3.501464  -1.899831   3.030038  -7.422364   3.362285   4.472387  -4.069786   2.777013  -5.827672  -5.883039  -5.603811 -28.084474 -16.271062  33.183108   0.065112  86.073388  -0.071210  -6.397895   4.788995  -5.653710  -1.037857  -6.952143   2.239011 -11.553533 -25.062427 -47.499932 179.988175 -76.164678 179.988375  -3.022335  -7.625392  -0.845587   1.107948 -17.124632  -8.491517  32.303238   0.000267  -0.004217 -14.075104 -11.051646   5.735495 -11.356762   0.004279   0.000671  -7.893891   7.519150   4.622567  35.081754  -0.002591   0.002397 -18.637388  -2.543357  -2.545211   0.332542   0.000201   0.000741
 -2.498444   0.889668   3.932624 -11.678539  19.336207   2.542701  13.040683  -3.413597  -1.977187   3.111352  -7.411372   3.376360   4.433963  -4.178733   2.658674  -5.896727  -5.380886  -5.516244 -29.016835 -16.225358  32.799113   0.052289  85.603740  -0.058076  -6.504419   4.660141  -5.839366  -1.228149  -7.187710   2.363360 -11.933071 -25.445183 -47.797688 179.984257 -75.788780 179.984009  -2.872120  -7.708625  -0.670514   0.648658 -17.105537  -8.818282  32.394913   0.000082  -0.003469 -14.632388 -11.035460   5.397904 -10.085278   0.004564  -0.000170  -8.511562   7.431957   5.005882  35.854702  -0.006294   0.002871 -18.908091  -2.193917  -2.536544   0.289482   0.000404   0.000490
 -2.499651   0.889505   3.929843 -11.539404  19.092751   2.841155  13.265278  -3.339079  -2.098252   3.192551  -7.405354   3.342731   4.399435  -4.281259   2.541528  -5.970052  -4.876355  -5.447459 -29.896951 -16.152838  32.447905   0.042513  85.175246  -0.047745  -6.602509   4.589985  -5.985756  -1.418374  -7.443317   2.472101 -12.310505 -25.823953 -48.091938 179.981296 -75.430797 179.980489  -2.728865  -7.846938  -0.538190   0.162516 -17.069852  -9.206922  32.463296  -0.000043  -0.002884 -15.152485 -11.024761   5.078024  -8.918509   0.004632  -0.001634  -9.083893   7.317732   5.479401  36.591740  -0.010104   0.003188 -19.159359  -1.866586  -2.525571   0.251490   0.000589   0.000330
 -2.500673   0.889465   3.927036 -11.385515  18.798759   3.174445  13.485145  -3.282791  -2.248574   3.269453  -7.411074   3.272294   4.366252  -4.377546   2.427301  -6.044165  -4.390151  -5.398114 -30.725504 -16.067534  32.119522   0.035182  84.781894  -0.039708  -6.693076   4.561363  -6.111818  -1.601286  -7.704392   2.565777 -12.676918 -26.189698 -48.379877 179.979200 -75.093621 179.977820  -2.592044  -8.008421  -0.431398  -0.344616 -17.016605  -9.650625  32.496379  -0.000089  -0.002371 -15.639219 -11.022405   4.772867  -7.848825   0.004564  -0.003212  -9.616141   7.183270   6.018941  37.280792  -0.013581   0.003465 -19.393399  -1.560049  -2.512910   0.217392   0.000746   0.000226
